<mxfile host="app.diagrams.net" modified="2022-05-28T01:05:15.926Z" agent="5.0 (Windows NT 10.0; Win64; x64) AppleWebKit/537.36 (KHTML, like Gecko) Chrome/101.0.4951.64 Safari/537.36 Edg/101.0.1210.53" etag="ytaNOLTkJBS5blnXh9jQ" version="18.0.5" type="github">
  <diagram id="tB5pIWiUVw0GR360zYWC" name="Page-1">
    <mxGraphModel dx="1807" dy="1114" grid="1" gridSize="10" guides="1" tooltips="1" connect="1" arrows="1" fold="1" page="1" pageScale="1" pageWidth="1100" pageHeight="850" math="0" shadow="0">
      <root>
        <mxCell id="0" />
        <mxCell id="1" parent="0" />
        <mxCell id="Qy1YSooEbF1-Xl57sns_-1" value="" style="rounded=1;whiteSpace=wrap;html=1;dashed=1;" parent="1" vertex="1">
          <mxGeometry x="210" y="120" width="220" height="560" as="geometry" />
        </mxCell>
        <mxCell id="Qy1YSooEbF1-Xl57sns_-4" value="Hub Vnet&lt;br&gt;" style="verticalLabelPosition=bottom;html=1;verticalAlign=top;align=center;strokeColor=none;fillColor=#00BEF2;shape=mxgraph.azure.virtual_network;pointerEvents=1;" parent="1" vertex="1">
          <mxGeometry x="210" y="690" width="50" height="27.500000000000004" as="geometry" />
        </mxCell>
        <mxCell id="Qy1YSooEbF1-Xl57sns_-15" value="" style="group;" parent="1" vertex="1" connectable="0">
          <mxGeometry x="240" y="310" width="160" height="150" as="geometry" />
        </mxCell>
        <mxCell id="Qy1YSooEbF1-Xl57sns_-12" value="" style="rounded=1;arcSize=10;dashed=0;fillColor=none;gradientColor=none;strokeWidth=2;" parent="Qy1YSooEbF1-Xl57sns_-15" vertex="1">
          <mxGeometry y="20" width="160" height="130" as="geometry" />
        </mxCell>
        <mxCell id="Qy1YSooEbF1-Xl57sns_-14" value="" style="aspect=fixed;html=1;points=[];align=center;image;fontSize=12;image=img/lib/azure2/networking/Network_Security_Groups.svg;" parent="Qy1YSooEbF1-Xl57sns_-15" vertex="1">
          <mxGeometry x="10" y="6" width="24.71" height="30" as="geometry" />
        </mxCell>
        <mxCell id="OLNctRt6fVr137dPHMn3-2" value="Azure Firewall" style="sketch=0;aspect=fixed;html=1;points=[];align=center;image;fontSize=12;image=img/lib/mscae/Azure_Firewall.svg;" parent="Qy1YSooEbF1-Xl57sns_-15" vertex="1">
          <mxGeometry x="55" y="50" width="50" height="50" as="geometry" />
        </mxCell>
        <mxCell id="Qy1YSooEbF1-Xl57sns_-16" value="" style="group" parent="1" vertex="1" connectable="0">
          <mxGeometry x="240" y="470" width="160" height="150" as="geometry" />
        </mxCell>
        <mxCell id="Qy1YSooEbF1-Xl57sns_-17" value="" style="rounded=1;arcSize=10;dashed=0;strokeWidth=2;fillColor=#f5f5f5;fontColor=#333333;strokeColor=#666666;" parent="Qy1YSooEbF1-Xl57sns_-16" vertex="1">
          <mxGeometry y="20" width="160" height="130" as="geometry" />
        </mxCell>
        <mxCell id="Qy1YSooEbF1-Xl57sns_-18" value="" style="aspect=fixed;html=1;points=[];align=center;image;fontSize=12;image=img/lib/azure2/networking/Network_Security_Groups.svg;" parent="Qy1YSooEbF1-Xl57sns_-16" vertex="1">
          <mxGeometry x="10" y="6" width="24.71" height="30" as="geometry" />
        </mxCell>
        <mxCell id="OLNctRt6fVr137dPHMn3-1" value="Azure Bastion" style="shape=image;imageAspect=0;aspect=fixed;verticalLabelPosition=bottom;verticalAlign=top;image=data:image/jpeg,/9j/4QBCRXhpZgAASUkqAAgAAAABAJiCAgAdAAAAGgAAAAAAAADCqWRlYWdyZWV6IC0gc3RvY2suYWRvYmUuY29tAAAAAP/sABFEdWNreQABAAQAAAA8AAD/4QUbaHR0cDovL25zLmFkb2JlLmNvbS94YXAvMS4wLwA8P3hwYWNrZXQgYmVnaW49Iu+7vyIgaWQ9Ilc1TTBNcENlaGlIenJlU3pOVGN6a2M5ZCI/PiA8eDp4bXBtZXRhIHhtbG5zOng9ImFkb2JlOm5zOm1ldGEvIiB4OnhtcHRrPSJBZG9iZSBYTVAgQ29yZSA1LjYtYzE0NSA3OS4xNjM0OTksIDIwMTgvMDgvMTMtMTY6NDA6MjIgICAgICAgICI+IDxyZGY6UkRGIHhtbG5zOnJkZj0iaHR0cDovL3d3dy53My5vcmcvMTk5OS8wMi8yMi1yZGYtc3ludGF4LW5zIyI+IDxyZGY6RGVzY3JpcHRpb24gcmRmOmFib3V0PSIiIHhtbG5zOnhtcE1NPSJodHRwOi8vbnMuYWRvYmUuY29tL3hhcC8xLjAvbW0vIiB4bWxuczpzdFJlZj0iaHR0cDovL25zLmFkb2JlLmNvbS94YXAvMS4wL3NUeXBlL1Jlc291cmNlUmVmIyIgeG1sbnM6eG1wPSJodHRwOi8vbnMuYWRvYmUuY29tL3hhcC8xLjAvIiB4bWxuczpkYz0iaHR0cDovL3B1cmwub3JnL2RjL2VsZW1lbnRzLzEuMS8iIHhtcE1NOk9yaWdpbmFsRG9jdW1lbnRJRD0iRDc5QjkwRkQwNjFEQ0E1Njc4RUQ4QjJDNTM3RTc2Q0YiIHhtcE1NOkRvY3VtZW50SUQ9InhtcC5kaWQ6QzIyRDMwQzQyMzZBMTFFQkIzMTVCMDFEQzJBNzNCNzQiIHhtcE1NOkluc3RhbmNlSUQ9InhtcC5paWQ6QzIyRDMwQzMyMzZBMTFFQkIzMTVCMDFEQzJBNzNCNzQiIHhtcDpDcmVhdG9yVG9vbD0iQWRvYmUgUGhvdG9zaG9wIExpZ2h0cm9vbSA2LjcgKFdpbmRvd3MpIj4gPHhtcE1NOkRlcml2ZWRGcm9tIHN0UmVmOmluc3RhbmNlSUQ9InhtcC5paWQ6NDA3ZWU5NzAtY2E0Ni1mMjRiLWEzMjMtYTMyYzI5MGU0YzE0IiBzdFJlZjpkb2N1bWVudElEPSJ4bXAuZGlkOjQwN2VlOTcwLWNhNDYtZjI0Yi1hMzIzLWEzMmMyOTBlNGMxNCIvPiA8ZGM6cmlnaHRzPiA8cmRmOkFsdD4gPHJkZjpsaSB4bWw6bGFuZz0ieC1kZWZhdWx0Ij7CqWRlYWdyZWV6IC0gc3RvY2suYWRvYmUuY29tPC9yZGY6bGk+IDwvcmRmOkFsdD4gPC9kYzpyaWdodHM+IDxkYzp0aXRsZT4gPHJkZjpBbHQ+IDxyZGY6bGkgeG1sOmxhbmc9IngtZGVmYXVsdCI+UG9ydHJhaXQgb2YgaGlzIGhlIG5pY2UgaGFuZHNvbWUgYmVhcmRlZCBjaGVlcmZ1bCBvdmVyd2VpZ2h0IGZhdCBTYW50YSB3YWl0ZXIgd29ya2VyIHNob3dpbmcgb2stc2lnbiBnb29kIGpvYiB3ZWFyaW5nIGFwcm9uIGFkdmljZSBhZHZlcnQgc29sdXRpb24gaXNvbGF0ZWQgZ3JlZW4gY29sb3IgYmFja2dyb3VuZDwvcmRmOmxpPiA8L3JkZjpBbHQ+IDwvZGM6dGl0bGU+IDwvcmRmOkRlc2NyaXB0aW9uPiA8L3JkZjpSREY+IDwveDp4bXBtZXRhPiA8P3hwYWNrZXQgZW5kPSJyIj8+/+0AaFBob3Rvc2hvcCAzLjAAOEJJTQQEAAAAAAAwHAFaAAMbJUccAgAAAgACHAJ0ABzCqWRlYWdyZWV6IC0gc3RvY2suYWRvYmUuY29tOEJJTQQlAAAAAAAQdDWMTXvitLXolfhjlk/ZVv/uACZBZG9iZQBkwAAAAAEDABUEAwYKDQAAGqIAAB/UAAAyHgAAPxD/2wCEAAYEBAQFBAYFBQYJBgUGCQsIBgYICwwKCgsKCgwQDAwMDAwMEAwODxAPDgwTExQUExMcGxsbHB8fHx8fHx8fHx8BBwcHDQwNGBAQGBoVERUaHx8fHx8fHx8fHx8fHx8fHx8fHx8fHx8fHx8fHx8fHx8fHx8fHx8fHx8fHx8fHx8fH//CABEIAhUDIAMBEQACEQEDEQH/xADTAAEAAgMBAQAAAAAAAAAAAAAABgcDBAUCAQEBAAMBAQEAAAAAAAAAAAAAAAMEBQIBBhAAAgEEAgICAgIDAQAAAAAAAgMBACARBGAFEBIwE6AxISJAMhQGEQABAgIGBwYGAgMBAAAAAAABAgMAESAhMUFREmBhcSIyUgShwdFCEyMQMIHhgjORokCgQ1MSAAICAgMBAQAAAAAAAAAAABEhYHAQASAwoECAEwEAAQMDAwIHAQEBAQAAAAABEQAhMSBBUWBhcYHREPCRobHB4TDxoED/2gAMAwEAAhEDEQAAAbMAAAAAAAAAAAAAAAAAAAAAAAAAAAAAAAAAAAAAAAAAAAAAAAAAAAAAAAAAAAAAAAAAAAAAAAAAAAAAAAAAAAAAAAAAAAAAAAAAAAAAAAAAAAAAAAAAAAAAAAAAAAAAAAAAAAAAAAAAAAAAAAAAAAAAAAAAAAAAAAAAAAAAAAAAAAAAAAAAAAAAAAAAAAAAAAAAAAAAAAAAAAAAAAAAAAAAAAAAAAAAAAAAAAAAAAAAAAAAAAAAAAAAAAAAAAAAAAAAAAAAAAAAAAAAAAAAAAAAAAAAAAAAAAAAAAAAAAAAAAAAAAAAAAAAAAAAAAAAAAAAAAAAAAAAAAAAAAAAAAAAAAAAAAAAAAAAAAAAAAAAAAAAAAAAAAAAAAAAAAAAAAAAAAAAAAAAAAAAAAAAAAAAAAAAAAAAAAAAAAAAAAAAAAAAAAAAAAAAAAAAAAAAAAAAAAAAAAAAAAAAAAAAAAAAAAAAAAAAAAAAAAAAAAAAAAAAAAAAAAAAAAAAAAAAAAAAAAAAAAAAAAAAAAAAAAAAAAAAAAAAAAAAAAAAAAAAAAAAAAAAAAAAAAAAAAAAAAAAAAAAAAAAAAAAAAAAAAAAAAAAAAAAAAAAAAAAAAAAAAAAAAAAAAAAAAAAAAAAAAAAAAAAAAAAAAAAAAAAAAAAAAAAAAAAAAAAAAAAAAAAAAAAAAAAAAAAAAAAAAAAAAAAAAAAAAAAAAAAAAAAAAAAAAAAAAAAAAAAAAAAAAAAAAAAAAAAAAAAAAAAAAAAAAAAAAAAAAAAAAAAAAAAAAAAAAAAAAAAAAAAAAAAAAAAAAAAAAAAAAAAAAAAAAAAAAAAAAAAAAAAAAAAAAAAAAAAAAAAAAAAAAAAAAAAAAAAAAAAAAAMfvMH08vg26kpo35jnaQAAAAAAAAAAAAAAAAAAAAAAAAAAAAAAAAAAAAAAAAAAAAAAHIsVq+1sjRliAn2VrSijfAAAAAAAAAAAAAAAAAAAAAAAAAAAAAAAAAAAAAAAAAAAAAHn3yGaObD9DO+e+ACV0L87y9YAAAAAAAAAAAAAAAAAAAAAAAAAAAAAAAAAAAAAAAAAAAADnTQV7rZHMngAA6EM1kY+1vRSgAAAAAAAAAAAAAAAAAAAAAAAAAAAAAAAAAAAAAAAAAAAHkR0M+FaWZ498AAlNG/OcvUyedAAAAAAAAAAAAAAAAAAAAAAAAAAAAAAAAAAAAAAAAAAAAackVf62RxbNYADZ4kn+Trd6rbAAAAAAAAAAAAAAAAAAAAAAAAAAAAAAAAAAAAAAAAAAAAEau0YJqZWHrkACQVLk+ytbY47AAAAAAAAAAAAAAAAAAAAAAAAAAAAAAAAAAAAAAHj3zF1zscdgAAAYOuIFq5MduUwAMvPU6y9WT0rwAAAAAAAAAAAAAAAAAAAAAAAAAAAAAAAAAAAAAAEXvUINp5ePrmc5erLKGgAABxLNWvtbI1ZIwAOxWs2Dk6+7HKAAAAAAAAAAAAAAAAAAAAAAAAAAAAAAAAAAAAAABr98VHv/PeffAJ9la0oo3wANfvipN/57x74APfns0zdOXZ+h9egAAAAAAAAAAAAAAAAAAAAAAAAAAAAAAAAAAAAAADX74qXe+fx9cgffPbCydeR07oA1++Kj3/AJ7z74B0oZ7ByNfpwzgAAAAAAAAAAAAAAAAAAAAAAAAAAAAAAAAAAAAAAAAcG1UrnYxvPvgHrz2xsfZ71W2AInfz4LqZX0lmfoTbN1PfnoAAAAAAAAAAAAAAAAAAAAAAAAAAAAAAAAAAAAAAAAAEdt06818f574Bk86snG2uzWsgCE6WX1YLEhqXMfvMJ08yU0b3RhnAAAAAAAAAAAAAAAAAAAAAAAAAAAAAAAAAAAAAAAAAEYu0YDrZHwAy89WZi7fVgsADx75zpoa718bRli2o5LPxNzdjlAAAAAAAAAAAAAAAAAAAAAAAAAAAAAAAAAAAAAAAAAETv58F1MoAbHHdm4u50YZgBEb+dB9TLA3opbOxNza4kAAAAAAAAAAAAAAAAAAAAAAAAAAAAAAAAAAAAAAAAAEN0c2F6WYANuOSzsTc3Y5QDyvtbIjV2kB0oZrNxNzPz2AAAAAAAAAAAAAAAAAAAAAAAAAAAAAAAAAAAAAAAAAIPp5cR0M4Ab0UtnYm5tcSAfHlc7GNwLdQDrV7Fl423l56AAAAAAAAAAAAAAAAAAAAAAAAAAAAAAAAAAAAAAAAAEB1ciL3qIA6UM9m4m3n57A8e+Vts4nFs1gO1WtWTjbXvz0AAAAAAAAAAAAAAAAAAAAAAAAAAAAAAAAAAAAAAAAD48rzXyI7cpADrV7Fl4u3l86Axdc1ntYnKnrgd+pbsbH2fr0AAAAAAAAAAAAAAAAAAAAAAAAAAAAAAAAAAAAAAAADz75XGxjcK1UAEpo357lawAwdcVjt4fOmhAktK7YOTrnoAAAAAAAAAAAAAAAAAAAAAAAAAAAAAAAAAAAAAAAAHj3mtdnF41msBIqdyxMjZAA1e46w28PSliAldDQneXqgAAAAAAAAAAAAAAAAAAAAAAAAAAAAAAAAAAAAAAACO3KUgqXPDytdrF5Fit0YZrIxtrdjlAAGjLFWO1h6skYEyztKaZumAAAAAAAAAAAAAAAAAAAAAAAAAAAAAAAAAAAAAABpyRQDWyeJZqyOndsLI19SSOI6GfN8zT9+dAAADmzQVltYmDvgCc5erLaGgAAAAAAAAAAAAAAAAAAAAAAAAAAAAAAAAAAAAABGLtGDamVh65AnGZqS3P0Pr0AAAADkz1602sTF1yPpamFv9GGYAAAAAAAAAAAAAAAAAAAAAAAAAAAAAAAAAAAAavccB1sng2qgA6MM1iZGz0YZgAAAAAOLZq1ts4vj3wWdibnYr2QAAAAAAAAAAAAAAAAAAAAAAAAAAAAAAAAAAAI3cpQTUysHfAH3z2W0NCa5un789AAAAAAA5FitFb1HeilmedpAAAAAAAAAAAAAAAAAAAAAAAAAAAAAAAAAAADW74gerkx63TAG9FLYGTr9ivZAAAAAAAAAAAAAAAAAAAAAAAAAAAAAAAAAAAAAAAAAAAAAjtylA9TK1++APpKqGhN8zTyedAAAAAAAAAAAAAAAAAAAAAAAAAAAAAAAAAAAAAAAAAAAADX74gmplRy5SAG7FLP8rX7VayAAAAAAAAAAAAAAAAAAAAAAAAAAAAAAAAAAAAAAAAAAAABH7dOBauTrd8ACVUL83zNTL50AAAAAAAAAAAAAAAAAAAAAAAAAAAAAAAAAAAAAAAAAAAABz5Yaq3cH574BuRyz/J1u3WtAAAAAAAAAAAAAAAAAAAAAAAAAAAAAAAAAAAAAAAAAAAAAAcWzVrPaxAJRRvTnM1cvPQAAAAAAAAAAAAAAAAAAAAAAAAAAAAAAAAAAAAAAAAAAAAAA+PIdo53PmhklK73qtsAAAAAAAAAAAAAAAAAAAAAAAAAAAAAAAAAAAAAAAAAAAAAAAAAAAAAAAAAAAAAAAAAAAAAAAAAAAAAAAAAAAAAAAAAAAAAAAAAAAAAAAAAAAAAAAAAAAAAAAAAAAAAAAAAAAAAAAAAAAAAAAAAAAAAAAAAAAAAAAAAAAAAAAAAAAAAAAAAAAAAAAAAAAAAAAAAAAAAAAAAAAAAAAAAAAAAAAAAAAAAAAAAAAAAAAAAAAAAAAAAAAAAAAAAAAAAAAAAAAAAAAAAAAAAAAAAAAAAAAAAAAAAAAAAAAAAAAAAAAAAAAAAAAAAAAAAAAAAAAAAAAAAAAAAAAAAAAAAAAAAAAAAAAAAAAAAAAAAAAAAAAAAAAAAAAAAAAAAAAAAAAAAAAAAAAAAAAAAAAAAAAAAAAAAAAAAAAAAAAAAAAAAAAAAAAAAAAAAAAAAAAAAAAAAAAAAAAAAAAAAAAAAAAAAAAAAAAAAAAAAAAAAAAAAAAAAAAAAAAAAAAAAAAAAAAAAAAAAAAAAAAAAAAAAAAAAAAAAAAAAAAAAAAAAAAAAAAAAAAAAAAAAAAAAAAAAAAAAAAAAAAAAAAAAAAAAAAAAAAAAAAAAAAAAAAAAAAAAAAAAAAAAAAAAAAAAAAAAAAAAAAAAAAAAAAAAAAAAAAAAAAAAAAAAAAAAAAAAAAAAAAAAAAAAAAAAAAAAAAAAAAAAAAAAAAAAAAAAAAAAAAAAAAAAAAAAAAAAAAAAAAAAAAAAAAAAAAAAAAAAAAAAAAAAAAAAAAAAAAAAAAAAAAAAAAAAAAAAAAAAAAAAAAAAAAAAAAAAAAAAAAAAAAAAAAAAAAAAAAAAAAAAAAAAAAAAAAAAAAAAAAAAAAAAAAAAAAAAAAAD/2gAIAQEAAQUC/LhYxaw3u7YdDt7Qzo95meP7vZo1Y2tx+yfnotqWJ44RCI7/AHkzUzMzZ/54Z/6ON7m+jVHc7B+0VuppP2j09ReqnjP6rf7sRozIyt0OlNlLWCw4zs7aNYN7tH7VyNdzz0OpTr8b3+5WmmuY07dDqHbFI10oDhxGAwGxrnPwuepAb/bt2LlqY09DpVq4h2nbfRLGsaVdT2vv8G/2itWtjZdsHbo9Y/anV00awcP2G/Ugikp89T2n2xbsN+pBkRlYIkRaHSRFRERHENhX2oMCA/MTMT1XZxsRZsK+1BDIl509B+0Wn16NUeJ9n1o7IkJCXkSkZ6zso2Qs7jrffzodIRUACA8V7TrI2BmJifIGQH1vYjtLs7fq8V1fXJUqmMWsNvvWSWjur21cU7bq/uixTTUzr98NtdgBADv769Re1uP2TrW2W67dTbVtK4p23V+9qHsQzR3V7SrO+1TMfOptt1W62yrYVxTt+rt1tluu3U21bSrO16z6J86O6zVah63r4p2/V+luptt1W62yrYV5mIKO062dYvPX756jFNBocU7bq/pmzR3WajUPW5fkwEx7Lri1Weet7EtUwMTHicxEx2vWTrlZ1++eoxTAaHlqgavsNA9Rvnq+ynWKJgo4mQiQ9n1pap2dFskL7HoW9W7pM1W+eq7P6J4owAYHY9ceofno0ke7bs6ythW3qN1m+ep7T6+Ju7vVBwkJCxYNDsOvPUZWnov2i1NReqq7c1FbStnXbrt89R2mOIbO2jWDe7R+z46rs51yiYmNwVlraHSEdAAAPwb2kvbU5LEs89R2nvw7e7paqa1jT89BssIZiJ+TsNANtbFmo/PXvl+nwrY2U64b3bO2bdTRftFpaStRfy9l1w7QGBAXjqVyvQ4TvdypNOc1x+YiZrR6QioAAB+fe6xG1R9BuROr0MwfCH7CUBvdu7Yt1dN+yel1iNXjm93CkU97XnZo9IZ0tYLDjT9hKA3u4a+3V037J6PVo1uOb/bq16fsOedmj0hspalqDje++Uan7s1tR+yej1SNbj3cBJdf50OlY2lKWoOPTETGz0H9h6HdmdLqEa8/lx//2gAIAQIAAQUC/LhiKBNesUaeQAuZoQiLHDx4E3P/AFxsQmaAIi4jiKIs8bBN5uqZ40I5oF4uksUbc8bBWaiMXG3FTOeIes/FEZoFYumaN2eILVmojw1fwAvNCOLjZEURTPEBjM2NXi4YzNxu4lE4m1i8WjOJsI4ijOZ4otmLmLxapnk3cXWzFzF4tUymMz4iKFNGGOKqZi2YzRhi4A9qEYjwQ5ohxxVTLZjNGGLUFYQ5ohxxVTLSHNEOLVMzYYZqYxxVTLSHNEOLVszYYZqY4qpmbTDNTGLVszYxeeLLZm0wzUxZE4oDzYxeeLLZm1w/xZE4oDzY1eeKxNLZmx0/xaJYoSzY1fE4TPiJoDz4I4iiLN4lihLNjV8QEZmgXEeGLz4H9m74gPFRObGr4cCaiMWPH5QPFRNhxieFCOaBWLSOIozz8y2YsbP9uEgrNRGLTd/ggzFffFE/hMDmgVi0jiKNkzxwFZqIxabqmeNxGaBWLSKIo2TPHAVmoHFpuqZ44EZmwiiKNkzx5X+3k3VM55AL6++KNsz+XJ//2gAIAQMAAQUC/LhmaN1e00DuQGyIojmbEFx43XI/fGzOIo2TNwhM0A442brwTURxoiiKNkzdA5oFY42bsVM5uBWagccQ9o+KZxRtzdEZoE44gxuKmfCm/AbMURZuBczQhEcQKcRYpmbinEXAniRRmJtUzNpRmLACZoAiOKMXm5bM2tX5BPF2rzctmbWrpS8eJmifQH7cVavNsTigP2uM/WiOZ8CWKEs8Vaq2JxQH7WvGwSxQlnirVWiWKEs2tXiwD9aic8Vau0SxQlm1i8WAfrUTnirV4tA/WonNrF4sWzHFmrxas/WonNkxmjD1sWzHFmLxagv5smM0YYsUzHFZimL9bEx/NpDmiHFimcTl0eJimL9fAhM0I4vIc0Q4sUziBFEUbZnwpmPBfoE/EYe1TGLFM4cbsVM5sQXysD2qYsXOY4URYo25tEJmgD1+Zi82Kj+vCTdipnNoJ/wTXBV9E0KOEyWKNubRCZoFxHHDbipnNoJqI43JYo25tEZmgXEccNuKks2gmojjhziLBGZoFRHHm/6+QTmojHICRX0TQKiPy5P/2gAIAQICBj8C9cTwrDdivmvxQog8nUlParCGVIhwddjfWI0NyUbkos8y8yU6iy7zDnZa+NVkrFViqQv1zf/aAAgBAwIGPwL1xLDsNWKubr5SpxBZG5KO12EcuRHXBRYyU66zGjqSnUlNniXjclG4s+8bhyst/G6ydiuxXIV65v/aAAgBAQEGPwL/AG4StxWVIvMZOm3Ec958ImHVz2mA31X0c8dIJcTtyB3xmcNVybhQUyq1vh2aOlSjJItJgt9LUL3fCJmsm+i4ryhMv5P20c3zNVyBbG8ZIuQLKUmxV5lmwR6aK+ZWJ0bLfTVqvcu+kFSjmUbSaQc6jcRci8+EBCBlSLANGszqpYC8xl4GuQd9LI0nMYC1+49jcNmjZQxvuY+UQVuKzKN9ILc9tnG87IyNJyjQ+aiEjExJDiVHAEH5Wd1WVMFDfttdp20ghtOZRuEBx/fc5bh46Ieix+zzKwjM4oqOJ+AYfO/5F46j8jKN97lw2xndVM3YDZSnwNXrPdGVobVXnRBxzkSTBUayayaAYePujhVzfek45yJJgqUZqNZNEJSJqNgEBzqqzc34xIWaIrb50kQULElJqIoTFsek7+4X81FxvnSRBSqoioihuCSL1myNwTXes26KZ0VPizXqgpUJEWigFJMiLDGRdT6bdeuieoZG+P2Jx1/EOdTupubv+sBKRlSLANFvVa/eP7RI1EWigFoMlCwxI1PJ4k94onqGBV/0R3wh4jM6oTnhPD4FbisqReYl026geY2mMyaljjThoqXmR7o4k833ohxBkpNhjBxPGmjlTwiwQCd5auFMZnDsTcPgHGzWO2PUR+ScDoqeoYG/50Y69tEONmShGZNShxpwoofTWEVL8aHqI/JOIgONmo2jDRU9QwNbiO8UQ42a7xjHqI/JOBo+s0PZNo5ftQzJrSeNOMBxszSdFT1DA3P+iMNdH1EfknEQHGzUbsKBBEwbRGdFbCuzVQxaVxp74DiDNKrDoqX2R7R4k8v2o5k1pPGnGA42ZpNAoWJpNoiYrZVwq7jQka2VcQ7xAUkzSbDopI1gx6rX6D/Wji0rjT3wFoM0qsNAtrE0qtEStbPAqh6blbCuzXAIMwbDooUqE0m0RnRWwqw4aqPoHgcrA1iiW3BNJjIqtJ4FY0PRdPsmw8v20VKFiaVWiJitlXCruND1PK2CT9aqRbcFVxwMFtf4qxFAMPH2/IrD7aJhCd9PnWLBsxgKSZpNhgoWJpVaIxaVwK7j8JIG75lmwR6aPyViaeRf4qwMFtwVjtoDp3zVY2vuOiGZ1UsBeYyjca5B3/D0nf0n+sTFkOBzgymA51O6m5u/64QEoGVIsA+TlVUscCsILbgkoUB0753/ACLx1aHFDG+5zeUeMFbisyjeaC2VVpRWnVqiv5mDqeBXdBQsSUm0UG3DxWK2irQvO6qQuF5goT7bOF520ZNjdvWbBGVFZPErH5001PJ4TjqMFCxJQtHxbnad7+dCihn3HMfKIzuKzKoSFsBzqd1P/nf9YCUDKkWAf4EzuuXLHfG6UqH8QFdQoEDyJ8dCc7qsogob9trtO2jlbFV6rhE+N3nPdo4UNe472CM7qsyqIX1O6nkvO3CAhAypFgGjed1WUQUNe212mjlaTtVcIzcbvOe7Rwtt773YNsZ3VZjRC+o3Ecl58ICG05Ui4aOOODiA3dpqiZoZWkzxNwjMd93mN2zR5yV0j20At/cb5fMfCAhtOVIuGj8jWDaIn065DkV4xWUDXOM6vcdxNg2D/bk//9oACAEBAwE/If8A1wmgyqEWTe/C4feof3L83NWoC2Gx6f2UIklx6fbN+ZS2rHmx28RoeOY1PPb0enTQXiIArsAEz6dvNIkbhV1dK+eXkE/LpyTTPfPY71j19s88urHL/oP1R64bpnk6aUCrAXVqyHFsvDfzikj3CpXVdzlwebh96HH2Q6a8Rjv4CkEdnc8t9Rtm7wHK7VZRyfsP303Zljfmy03bOXzbVcR8jH7omQc8ryu/R/eTAB967ivZ9n/J6QN3fsG7V2eF/e2OxqYBhUWA5jP3nSCrAnPc7Q3anhe7NCjJZMNeC9vmP5/wLbwWOO5fqp6NpscDbUAJ9ReG9WEVzX8z0hvagncLfekplqN1z8cXK4IhtnD8p1b2oJ3C1SnjK3XS6K0BK13UA4PPfxQAIFgMdI3LiBeFLNT6JK5NABIFxOaEtB24Dfzzp2tgXulqDCWo2TOiHRHbPd7Vmx988cHbpSN4G7Y8v00iB8JkTQlBUhkSp9gLOPD9mlzKYDYbO58AVguuCrycmFfp4zQV7EUB0s6CBucDZ78NIgkQmR0PofJZGrGSeb9Gnycht29uaNkPPtEx6N/gaDKoLlJlGYe2x964bDdXs7dKhaSsbCiIw2TQkt0hUtt/3J2dIS1Y4jg7FDjcR2mN12Kv5hjt4j4QNMxsNx7UZWHCZ4HpWPYdy+18p0/YuFOHs1w+W6vZ20lDASNjJ7tBFbYTHA1I08gtx6VlzuB9/wB2mJoPANxoit8JngdCCIkjZGneU/kPyjRw+WyPc2r7lwnZ7nSvlSD7HbnjSZWTCY4GpGmTctx76DrChLiNQ/UW7+X6dEtv/wAi7lBbNIdKJNnFdgCt3y9NPDZbI9zavufGdnuaA8HhMJVzLPF+zRc+7w/soOxZDCdKIAwEcJSIJW5ydntxpnt/+RdyhvmkNASzQlSRP/Ovc0S8UX7+Hbko6wpC4j0oCAsJhGrwEeby/Wl20g8Ip+4afuTCPJ3Kb7q2R78mhzlLe3PymhEEZHD0oIg0JV4jPF+z86CALodwg++qdovJsJQM9wxyGibdll38PyjpJQJbBlo3maKQEgLIYRo75oSt+O+U3+Fmo/IMvait3dM8jrUlDks8nvUJTE7DZO2jyNLb5rdIeIR38BSr2NM+e/wAJL2eTv45oAkq4mIofy4Z2gsnecUTKW+B/J5o2tjZH+PPYbq9net/5z9nZ0QLKs33O/HPR1ueJ+RKlzZ2gRZALwc+yoSEwyTz/pHbf9i7NPfdCfEUZLJhq/iiTuSfWJ6Ljo9YOA3q/Hg/cfrTbpHzLL2pzvd8r9B/tb8bwqE4NhMj8Tu2WHZyfboq2vC/kO74pW5t38BsaEAJVgKvpyBy8tvGaFrYCgP/AIAcWR+EN67AYyr6JV+OV5nyooAILBg6Idg2eV4Der4FtB95+jTjzZ7eZo4jybXht05bkFnm7u72KWsTnB2DbQCsF1wVfVnPnPyocfCB02hIPOXsG9X5JZ4u7t4NNzAM1vM0OLvhjw26cZAFk3+7ntTtGzwHAbaAVgzV6eQ/K4feiAYXThttjyIPpM0qlJW6ujzCO3kaBPF1vDt56ezYbXsCftouDzHzIUOTG6fHZwITCNKoyctvAn8VAAeSfwUSWLBfIc/+uT//2gAIAQIDAT8h/wDXCiwUBe5pbYrf6geBom2iNnnp0Jre+jU7PPTmNryurM07l6bmvQI1EWypG700rtQ97qIS01pY6be5sUAg1FaXadS9HhNIZP8AJ1BR3N3UAS01lh0hmYUBj4Q8H+D+NAYNXlaVv0hAFBowmNUAUEaVitrpJENDJOnOMaYBoZ0Z2vC9KYrihnQk1mmNMV2PjFaiz0tjuNKTapPbTuqZRt8EWCjoj6VwnGkBDTvtpWaddqNt8AMNO4elYeDSYhpHpA8tBmGkcPTSAYadw6cJzoA06h6Vl0hmGkcOgaxXOgz3pBh6VymdIGnUOgYqD30Qe9JHSuO50me9IMOhFJRnvozTNJ0oMVFvnTN2NLqSgOjKM9KoMlAe+iOPOpHJRmTRLZnpNhOKSKQZKM9/hmady63clAZOlEVtXdX4Z5n4NBFRWoq5/wAUdGJNENnRzN7CgEGgC/P+rvtQJJonTotHBQd7pzNI/wDaT2oZ+Mi6KW5sUYg0xWos5/8AgTxo7vRUZQUNzd05mvC9OLc2KMQaQLURu9NuoKG5u6Rb12U6ca9sUQg0gWypFl6cjTSLeuynTzgaCLXNIpeoQ92rDg/9cn//2gAIAQMDAT8h/wDXCAS07awoLdrb+rqDytM30SkcdOrFbf1ajd46cyteB1M2oTB03HaizqZvhQBB00Leu2mplBRXt3psrLmlUup72xRCDo9YoTCf5GJaewsakUFFdc9IYmVI5+EnJ/gfnSOXV4WibdISDS6MpnVINLOkJrf+jpKQKEMOnDc6ZApI0YWsLnpTPM0kaBisdzpnsz8Z70COlsszpGLlQe+rAE7/AAAJaahDpXCZ0opKMd9IRRjvTN/gjkozJ0rNyaXUlANKPhodyUBk6ahHJRmTTlGNCKjEnSsekdyUBk0JWeY0Ou1AJOlcJjSioxJoSbNSe2iT2oZ6VyzGlV2oBJoAQ067aMdxQ9KJNTZMaYO5pMQ0jjRhOOlQSGkXbRPPjUBhp3Doj4OkzMZoZoEhpF2+GNozBrMw0jh6UwW9dpPhhuPgRU1PegBj/EhTqHRPydHFZc0il0M24/1Ed6QYdEK9FgZaa3BpxtALf7Re9JFn4xDoorC7TqXTPegBj/4PKU9mr3RIhLT2ljTia8r04dhdp1LpdvQCx02Qlp7CxpdtXdXpw7S7TKXS7ewoAg6cnXSrau8vTxlaGusKAQdQo7NXXL/65P/aAAwDAQACEQMRAAAQkkkkkkkkkkkkkkkkkkkkkkkkkkkkkkkkkkkkkkkkkkkkkkkkkkkkkkkkkkkkkkkkkkkkkkkkkkkkkkkkkkkkkkkkkkkkkkkkkkkkkkkkkkkkkkkkkkkkkkkkkkkkkkkkkkkkkkkkkkkkkkkkkkkkkkkkkkkkkkkkkkkkkkkkkkkkkkkkkkkkkkkkkkkkkkkkkkkkkkkkkkkkkkkkkkkkkkkkkkkkkkkkkkkkkkkkkkkkkkkkkkkkkkkkkkkkkkkkkkkkkkkkkkkkkkkkkkkkkkkkkkkkkkkkkkkkkkkkkkkkkkkkkkkkkkkkkkkkkkkkkkkkkkkkkkkkkkkkkkkkkkkkkkkkkkkkkkkkkkkkkkkkkkkkkkkkkkkkkkkkkkkkkkkkkkkkkkkkkkkkkkkkkkkkkkkkkkkkkkkkkkkkkkkkkkkkkkkkkkkkkkkkkkkkkkkkkkkkkkkkkkkkkkkkkkkkkkkkkkkkkkkkkkkkkkkkkkkkkkkkkkkkkkkkkkkkkkkkkkkkkkkkkkkkkkkkkkkkkkkkkkkkkkkkkkkkkkkkkkkkkkkkkkkkkkkkkkkkkkkkkkkkkkkkkkkkkkkkkkkkkkkkkkkkkkkkkkkkkkkkkkkkkkkkkkkkkkkkkkkkkkkkkkkkkkkkkkkkkkkkkkkkkkkkkkkkkkkkkkkkkkkkkkkkkkkkkkkkkkkkkkkkkkkkkkkkkkkkkkkkkkkkkkkkkkkkkkkkkkkkkkkkkkkkkkkkkkkkkkkkkkkkkkkkkkkkkkkkkkkkkkkkkkkkkkkkkkkkkkkkkkkkkkkkkkkkkkkkkkkkkkkkkkkkkkkkkkkkkkkkkkkkkkkkkkkkkkkkkkkkkkkkkkkkkkkkkkkkkkkkjZokkkkkkkkkkkkkkkkkkkkkkkkkkkkkkkkkkkkkkkkkkkkkkkttpkkkkkkkkkkkkkkkkkkkkkkkkkkkkkkkkkkkkkkkkkkkkkki1trkkkkkkkkkkkkkkkkkkkkkkkkkkkkkkkkkkkkkkkkkkkkkh9ttQkkkkkkkkkkkkkkkkkkkkkkkkkkkkkkkkkkkkkkkkkkkkjtttsckkkkkkkkkkkkkkkkkkkkkkkkkkkkkkkkkkkkkkkkkkkkpttsUkkkkkkkkkkkkkkkkkkkkkkkkkkkkkkkkkkkkkkkkkkkkhtttAkkkkkkkkkkkkkkkkkkkkkkkkkkkkkkkkkkkkkkkkkkkkidttqkkkkkkkkkkkkkkkkkkkkkkkkkkkkkkkkkkkkkkklpUkkk+ttuUkkkkkkkkkkkkkkkkkkkkkkkkkkkkkkkkkkkkkkkGtpkkgNtpXkkkkkkkkkkkkkkkkkkkkkkkkkkkkkkkkkkkkkkkkituskkttGkkkkkkkkkkkkkkkkkkkkkkkkkkkkkkkkkkkkkkkkkitt+kkFPkkkkkkkkkkkkkkkkkkkkkkkkkkkkkkkkkkkkkkkkkkk2toEkn0dMkkkkkkkkkkkkkkkkkkkkkkkkkkkkkkkkkkkkkkkkkmNtrkkEdykkkkkkkkkkkkkkkkkkkkkkkkkkkkkkkkkkkkkkkkkkVtqkkntr8kkkkkkkkkkkkkkkkkkkkkkkkkkkkkkkkkkkkkkkkkkttakjdtLkkkkkkkkkkkkkkkkkkkkkkkkkkkkkkkkkkkkkkkkkkVtr8kftqkkkkkkkkkkkkkkkkkkkkkkkkkkkkkkkkkkkkkkkkkkjttDkkNtkkkkkkkkkkkkkkkkkkkkkkkkkkkkkkkkkkkkkkkkkknltr0kktvckkkkkkkkkkkkkkkkkkkkkkkkkkkkkkkkkkkkkkkkkkttEkiNtZkkkkkkkkkkkkkkkkkkkkkkkkkkkkkkkkkkkkkkkkkj9tckkWtukkkkkkkkkkkkkkkkkkkkkkkkkkkkkkkkkkkkkkkkgM0r0kkkVtEkkkkkkkkkkkkkkkkkkkkkkkkkkkkkkkkkkkkkkkoo9hkkkkutukkkkkkkkkkkkkkkkkkkkkkkkkkkkkkkkkkkkkkiNtrkkkkkmVpkkkkkkkkkkkkkkkkkkkkkkkkkkkkkkkkkkkkkjFtrkkkkkkkNtskkkkkkkkkkkkkkkkkkkkkkkkkkkkkkkkkkkkWtqUkkkkkkklmEkkkkkkkkkkkkkkkkkkkkkkkkkkkkkkkkkkkgttvkkkkkkkkkkkkkkkkkkkkkkkkkkkkkkkkkkkkkkkkkkkkkhttM8kkkkkkkkkkkkkkkkkkkkkkkkkkkkkkkkkkkkkkkkkkkkkFtukkkkkkkkkkkkkkkkkkkkkkkkkkkkkkkkkkkkkkkkkkkkkkJttekkkkkkkkkkkkkkkkkkkkkkkkkkkkkkkkkkkkkkkkkkkkknVtnkkkkkkkkkkkkkkkkkkkkkkkkkkkkkkkkkkkkkkkkkkkkkkltrEkkkkkkkkkkkkkkkkkkkkkkkkkkkkkkkkkkkkkkkkkkkkkkjQ0kkkkkkkkkkkkkkkkkkkkkkkkkkkkkkkkkkkkkkkkkkkkkkkkkkkkkkkkkkkkkkkkkkkkkkkkkkkkkkkkkkkkkkkkkkkkkkkkkkkkkkkkkkkkkkkkkkkkkkkkkkkkkkkkkkkkkkkkkkkkkkkkkkkkkkkkkkkkkkkkkkkkkkkkkkkkkkkkkkkkkkkkkkkkkkkkkkkkkkkkkkkkkkkkkkkkkkkkkkkkkkkkkkkkkkkkkkkkkkkkkkkkkkkkkkkkkkkkkkkkkkkkkkkkkkkkkkkkkkkkkkkkkkkkkkkkkkkkkkkkkkkkkkkkkkkkkkkkkkkkkkkkkkkkkkkkkkkkkkkkkkkkkkkkkkkkkkkkkkkkkkkkkkkkkkkkkkkkkkkkkkkkkkkkkkkkkkkkkkkkkkkkkkkkkkkkkkkkkkkkkkkkkkkkkkkkkkkkkkkkkkkkkkkkkkkkkkkkkkkkkkkkkkkkkkkkkkkkkkkkkkkkkkkkkkkkkkkkkkkkkkkkkkkkkkkkkkkkkkkkkkkkkkkkkkkkkkkkkkkkkkkkkkkkkkkkkkkkkkkkkkkkkkkkkkkkkkkkkkkkkkkkkkkkkkkkkkkkkkkkkkkkkkkkkkkkkkkkkkkkkkkkkkkkkkkkkkkkkkkkkkkkkkkkkkkkkkkkkkkkkkkkkkkkkkkkkkkkkkkkkkkkkkkkkkkkkkkkkkkkkkkkkkkkkkkkkkkkkkkkkkkkkkkkkkkkkkkkkkkkkkkkkkkkkkkkkkkkkkkkkkkkkkkkkkkkkkkkkkkkkkkkkkkkkkkkkkkkkkkkkkkkkkkkkkkkkkkkkkkkkkkkkkkkkkkkkkkkkkkkkkkkkkkkkkkkkkkkkkkkkkkkkkkkkkkkkkkkkkkkk//2gAIAQEDAT8Q/wDXCKTZdAdu67BT/FYW3zD2Yq+e5ZU+Cp6qeUqBknYsfQ5N6AIAkS4j0/MSyVEk4b0fvwVfTRvQv3O7fQnGaSVnD0X0Q6dCPqMA3VsVItuAQvJ9y/AZp75KqhdVbrpCQw32/FHThZtctHvx9x96zS8vTgfyn0jVZWcJAXfc8C9ShKjoUQrg2Dbpo6xlCAC6q1Mu6QS/ez7vqpOVyhHddIKwXXBUSGxgP8j5GaKPsCgf13emnRJTlM23/ODenIZ765MNqfbH51PzF2W5ysPNBwxCBf72/dfiOm7UvMqU7pi4Lcu1ZMEGbbAYBsFtV0QhEWO9geVuJq6RKF+Urrz0fA+c/VpBX/EuEI/5WjO7i4V+wVfDZAYDsZPcXU/bYNL5dgN1tUaSxlPvODvb81jo9LhrAkkiLcs2O7hLvuLOxODsUCdQIMImEaXjhP0I/S/lnWMZMMiTAscwu9s0jvgYUeCPl1LkFsGIZLU/t3qO0BbpN/1FukI3JAsKEetEZ3QiiU+X4ioSEuJkaGJSk8Bk4HydUYggWFCHy0sR+5KJV0pl2WIdgL1HMtpT4jLstzOKBGUGABYAMHSJr3AcJHoN6borkBIdCIGiyIGREwlETvlYNh2mHqbxouCJAwKF6NPds5FUB8JovWmCpzh+B6xUEgMHHmPwnrPSivYKQW7z7DbDhCHohCI6A4OfRCRE3KLbBAB7PPyRjRA1UjubAbWTc75oEagAJVcAVDtMAYebzHs+igxVCAdg6WKLaCAN9D+h2h76gCAYRHCaAwqbgFWNGgsHHmbmz6ad+uTfNE+htnEwS53dAgGBFfL0+ApNl0B27rsFGyJCSExKz/V2xRiCKtlO5zvP30qBcmEiBk7D644pACiEbImj82JgCbjhN6i+CCfD38/axoQREkbI0XkXgbf0gNimDwzu4uIJKuJpvQvzS3+GIdHzcPdf3NRGCFpjX7HDv0rioEnAyJ9R+WdDE3yOUZPfcKBOQUsp/O4/elot/Eu2HAyejROYsWzr/odqxDkmLh7J/ele4YPncB9vrzpwqmmbh7j/AGoTGSY1/wBDvoPsJAkRsiNLYsHddjyctscaAU8dbAfxuP1QEzyO5uW24dKyLoknNumfS8sY0TGCFonX7nDtWIdmxcPYf3Gh6yiQBCI5Gkt8DdX3ePYb5+MXyAT5MXbH3sPbkpMw4eEwm3SgBCVZHCUiGpIMjkOT8jSQmjrYD+Nx+qBmWR3Nw23DQ9FR8o2qLaaS68+Js7nron6CjuvEXDc3PSjvuflGE6UNeJGFBCI5GlC2glXfU7vR2nRB8gE+TF3H3seOWszDh4TCbaPx6mAjsjcdqu4NY8nbsfezoE2AN1fZ+RcvkwymQBIiZHpRwwD5AhEaUhygUvP+W/nS91GMTxPKnwaTRmvsDD7bDRoMgJA/wPkI0LO3RLs+Thtnmj7CEGRG4idKKXQfIjV+7Jbqza2bPuD4qI4Y+rZk+mrMqIYmXsn8qZsYDOt+42dD3f5fNh3ds/hgRJMdIoEASlgDdoVxmtjE2NjmLRiaEMB+QJEStusxk5OEyJipqSizjexYP3ybhVx+gJC8/YUFzdvGIf0GxrhfMhTGsO3Desq6Hm5e6/mdE66IR8BHbn6cdIQ9SnKRtv8AnBu0+zLuB5GPRj8/B0t+ZV2He4epvIICiwpEiJkaW0kN0kewQ8qsSsCQ92x4+yh71AAHg/xUQTRkp2edp+6dmmNhNk32HRhoB3Ew7t3flnoxQJbBlq0vTlr2TB2t32rOQhSxwGANgtoas77qUk4m/qqxkkFwC4xybf6Y2JY/Wzn7WTvvlmcP7HI7/E06gQYRMI0o8ryFI+RPRa67RkBs7r5aSkiSez29uy3nTewcTj1PsL0rSoHABBY3Fj/aDyKewF5uHZ2fWnsuPgGz8THQstk/Vi9FWoWQMr2MXHqdqzy7ewcC3YNCEGg0qtgAqONgpB9rHs+iiCXAAdg/+AErHCKhiwieR70jJ/s53sPRadFRYkbwSJyB60CABAWANjog84sW/GV14rPNk1nsYH3F03U0CaB+52L0TZJakyyXo/fv05nzyDPbWD3EqzhwcDhWHY0AjUABKrgCr03A7F3bO32UUPYEB/Xd6bsIeG5OFddis+egY7awfcXTIIwww7/rL9qBYg2R8X/Xnvt05bMJP6Az2PVKQObStwlYeNAAFTAF1Wr+/A7F8z9M0QTYNB5eV3W/TijQBuBeofQp6D1CVW6q6BqoRhJ32/GXYo5QyW8OFn8njHT0K1Lj/iJPxBWC61d3owh7jk737b1iJQoJ5XKu636fDSsRIEInCU621LLtEk4n1VdqN7E7CtZ8gMF8jfuvxH/rk//aAAgBAgMBPxD/ANcMCJa+mht/aGh+hUB9n26gdnHL2qAD130EZ8vPTqKC7UPyvWgAg0hBv7OnGeHNC2vy1Ayr8b19Nhx00E0uxOPejEBBq3E5bHvSMkvTUUPtV79X21TZgr/rD56b/qI1GCDV/GE81PmXo9VATREoHh/yhxLX8MTVKiCvqAbvt0hD9Ic/yhYEFJWGdxx/P8Lm25+1QxjVac8fepwvTbpDug0AQYNGE9xx/NXdBowBg0gJWClfy+1Kt3pHtg0ZDDoSbNTd/wDb+aeyDQCTDoJ5cUre3DpRVuftQCTGgBDile5+3bTlvY8dvgtDuXn2p1Ky9LMt79qESTQYUSNJMXePbTNC32f1TU2LHnz8IES0Ym9duKibjZ6Vkf8AP/NLgJGuZLDpdS5qAFhlqED13+CGj6THnpW2TseP5pZBZqJuNnSorw0fSZ2pD0qY08P69tLGj6TO+gYqD/3/AN0RNzs0iC50rbJfZ57afpMeKQ6BBkzQjY/fRxIYadBCdKwPR9/7pibnZpEFzQ6EYSiibHPvoKYsce1OkSE6UFGSiG1++niQw0iCE0GEhKmWBk0CNj96QYc9KIpMlDFh+/fSfI/DSaS5UjM7nGiD/wB/9pI6UBJCVAmxyfs0ByF/deT5CGjHe45/vSQUvV2x84pFDkoEkJXGjk+Bsq/G9fMw1/XYc0BwaJ5Dyfv36QiB9qvvq+3wibX70kWaYspody87enNOypf8Z2Y3KAJZ0Xg23OO/R30EN32qMEGhAOcqFMf6cyWSgSSPxSjIx79Fwxmr8+z40myr8b1KnBg/2aJu8+9GBGR+JRNrfTor+8jUEINCxQ7l59qdSpf/AILeX4UwuCgSAzy0vREWZa/liaQJXpvVpxw9+nP7atQ5g0LW+Lzt/aRkl6bhzLX8tTTOH6b1bfR9+nP6gtRZg076ctv7UqJenBYxQRomD96th4ffp4ZG8mj6iGx71OCXp8UZKhIHqe1BLS9Ktj/1yH//2gAIAQMDAT8Q/wDXDKiCvqKb/wApaT6lSvyvPUBMZ4+9SJemxoR3nDx/OnQErBSPyvSlVl0tJt7unAbr8b0je3DVGhbnavqseemlig3Lz7U6lZdW2nDd9qgRB01OH7tWX0ffVFmWv+MPjpv+AB71MCXV/SF8e9RZg6PESsUxCHsn+UuYK/rq6owS19EDY9+kJ/rHj+0rKVoatU7Hn+/4W8vx96ljOpmcc/aoEfXd6Q7IFIsuXRGl7Xn+6uyBTpXLpRQEtAfK9aACDpHugUrWE0DFyoW3+/8AdPdApEjk0K8OdqF3culCOx+9IocmhFJmiOx+/fTi/cc9/gFNsTjf14oxAQdLCNv96RGHQ7EhKKJsc++mGStufuhruyfHj4SogpjFob8/ypSZ3OlY3q+/90mEhK4wMmkxBipQ3WCpE/TY+B3JX1+HHStyHcc9/Ok0lypyZ3NJgPLR9fhzR3pUyF5P376TtH1+HGhJqX/z/wA0TkxuUaSz0rdBbc476fr8OaO6AEhxTPc/bto5wslGEkelZ0PecfzTOTG5RpLOgwhI00xd49tDRN3n3owIyPSiCQ0i3/2/mnlCyUYSR0OAkaiOVh0M9z9qBJMdKAIbjS7x+3bSsjH5aXYWanbGzzon/wDP/KGelEQSNTAu8P6dDcIfm2p7R83HRZp2PH8/HSS0HFm785oBJcadBI1yB4f18GYFudq+djr+nx4prk0Qw3h/Xt0hOH71YfR9/hI3/wBv5QiSUZYRTQsnG/rxRsCD/GEudmkQQmiyTsee3no76oGx71OCXQAvGFIOf9OEHDTIIT4jSsZ39Oi5YxVme750swLc7VHLly/7DMWOPanSEJ8Umb3+vRX8JCpYy6AnFJsTjf1oyBB/8F4bcvejNlUpJkcFB0RNmCv6wvnSjB9dqvueft05/HUqfMugK2BON/5+aBgg6bmzBX9dXTCj67VffV9unP5Qnmpsy6foKb/yoUQdOORmlnRGD7VcXy+3TzwNofvo+iBu+1Rgg6fQSGpmV6PvS28PWrw9jx/65P/Z;" parent="Qy1YSooEbF1-Xl57sns_-16" vertex="1">
          <mxGeometry x="33.41" y="44" width="93.18" height="62" as="geometry" />
        </mxCell>
        <mxCell id="Qy1YSooEbF1-Xl57sns_-19" value="" style="group;" parent="1" vertex="1" connectable="0">
          <mxGeometry x="570" y="121" width="450" height="247.5" as="geometry" />
        </mxCell>
        <mxCell id="Qy1YSooEbF1-Xl57sns_-2" value="" style="rounded=1;whiteSpace=wrap;html=1;dashed=1;" parent="Qy1YSooEbF1-Xl57sns_-19" vertex="1">
          <mxGeometry width="450" height="220" as="geometry" />
        </mxCell>
        <mxCell id="Qy1YSooEbF1-Xl57sns_-5" value="Dev Vnet" style="verticalLabelPosition=bottom;html=1;verticalAlign=top;align=center;strokeColor=none;fillColor=#00BEF2;shape=mxgraph.azure.virtual_network;pointerEvents=1;" parent="Qy1YSooEbF1-Xl57sns_-19" vertex="1">
          <mxGeometry y="220" width="50" height="27.500000000000004" as="geometry" />
        </mxCell>
        <mxCell id="Qy1YSooEbF1-Xl57sns_-20" value="" style="group" parent="Qy1YSooEbF1-Xl57sns_-19" vertex="1" connectable="0">
          <mxGeometry x="30" y="20" width="160" height="150" as="geometry" />
        </mxCell>
        <mxCell id="Qy1YSooEbF1-Xl57sns_-21" value="Web Subnet" style="rounded=1;arcSize=10;dashed=0;fillColor=none;gradientColor=none;strokeWidth=2;" parent="Qy1YSooEbF1-Xl57sns_-20" vertex="1">
          <mxGeometry y="20" width="160" height="130" as="geometry" />
        </mxCell>
        <mxCell id="Qy1YSooEbF1-Xl57sns_-22" value="" style="aspect=fixed;html=1;points=[];align=center;image;fontSize=12;image=img/lib/azure2/networking/Network_Security_Groups.svg;" parent="Qy1YSooEbF1-Xl57sns_-20" vertex="1">
          <mxGeometry x="10" y="6" width="24.71" height="30" as="geometry" />
        </mxCell>
        <mxCell id="Qy1YSooEbF1-Xl57sns_-23" value="" style="group" parent="Qy1YSooEbF1-Xl57sns_-19" vertex="1" connectable="0">
          <mxGeometry x="240" y="20" width="160" height="150" as="geometry" />
        </mxCell>
        <mxCell id="Qy1YSooEbF1-Xl57sns_-24" value="SQL Subnet" style="rounded=1;arcSize=10;dashed=0;fillColor=none;gradientColor=none;strokeWidth=2;" parent="Qy1YSooEbF1-Xl57sns_-23" vertex="1">
          <mxGeometry y="20" width="160" height="130" as="geometry" />
        </mxCell>
        <mxCell id="Qy1YSooEbF1-Xl57sns_-25" value="" style="aspect=fixed;html=1;points=[];align=center;image;fontSize=12;image=img/lib/azure2/networking/Network_Security_Groups.svg;" parent="Qy1YSooEbF1-Xl57sns_-23" vertex="1">
          <mxGeometry x="10" y="6" width="24.71" height="30" as="geometry" />
        </mxCell>
        <mxCell id="Qy1YSooEbF1-Xl57sns_-29" value="" style="group" parent="1" vertex="1" connectable="0">
          <mxGeometry x="570" y="460" width="450" height="247.5" as="geometry" />
        </mxCell>
        <mxCell id="Qy1YSooEbF1-Xl57sns_-30" value="" style="rounded=1;whiteSpace=wrap;html=1;dashed=1;" parent="Qy1YSooEbF1-Xl57sns_-29" vertex="1">
          <mxGeometry width="450" height="220" as="geometry" />
        </mxCell>
        <mxCell id="Qy1YSooEbF1-Xl57sns_-31" value="Prod Vnet" style="verticalLabelPosition=bottom;html=1;verticalAlign=top;align=center;strokeColor=none;fillColor=#00BEF2;shape=mxgraph.azure.virtual_network;pointerEvents=1;" parent="Qy1YSooEbF1-Xl57sns_-29" vertex="1">
          <mxGeometry y="220" width="50" height="27.500000000000004" as="geometry" />
        </mxCell>
        <mxCell id="Qy1YSooEbF1-Xl57sns_-32" value="" style="group" parent="Qy1YSooEbF1-Xl57sns_-29" vertex="1" connectable="0">
          <mxGeometry x="30" y="20" width="160" height="150" as="geometry" />
        </mxCell>
        <mxCell id="Qy1YSooEbF1-Xl57sns_-33" value="Web Subnet" style="rounded=1;arcSize=10;dashed=0;fillColor=none;gradientColor=none;strokeWidth=2;" parent="Qy1YSooEbF1-Xl57sns_-32" vertex="1">
          <mxGeometry y="20" width="160" height="130" as="geometry" />
        </mxCell>
        <mxCell id="Qy1YSooEbF1-Xl57sns_-34" value="" style="aspect=fixed;html=1;points=[];align=center;image;fontSize=12;image=img/lib/azure2/networking/Network_Security_Groups.svg;" parent="Qy1YSooEbF1-Xl57sns_-32" vertex="1">
          <mxGeometry x="10" y="6" width="24.71" height="30" as="geometry" />
        </mxCell>
        <mxCell id="Qy1YSooEbF1-Xl57sns_-35" value="" style="group" parent="Qy1YSooEbF1-Xl57sns_-29" vertex="1" connectable="0">
          <mxGeometry x="240" y="20" width="160" height="150" as="geometry" />
        </mxCell>
        <mxCell id="Qy1YSooEbF1-Xl57sns_-36" value="SQL Subnet" style="rounded=1;arcSize=10;dashed=0;fillColor=none;gradientColor=none;strokeWidth=2;" parent="Qy1YSooEbF1-Xl57sns_-35" vertex="1">
          <mxGeometry y="20" width="160" height="130" as="geometry" />
        </mxCell>
        <mxCell id="Qy1YSooEbF1-Xl57sns_-37" value="" style="aspect=fixed;html=1;points=[];align=center;image;fontSize=12;image=img/lib/azure2/networking/Network_Security_Groups.svg;" parent="Qy1YSooEbF1-Xl57sns_-35" vertex="1">
          <mxGeometry x="10" y="6" width="24.71" height="30" as="geometry" />
        </mxCell>
        <mxCell id="OLNctRt6fVr137dPHMn3-5" value="" style="endArrow=none;html=1;rounded=0;entryX=0;entryY=0.5;entryDx=0;entryDy=0;startArrow=diamond;startFill=1;" parent="1" target="Qy1YSooEbF1-Xl57sns_-12" edge="1">
          <mxGeometry width="50" height="50" relative="1" as="geometry">
            <mxPoint x="100" y="395" as="sourcePoint" />
            <mxPoint x="180" y="250" as="targetPoint" />
          </mxGeometry>
        </mxCell>
        <mxCell id="OLNctRt6fVr137dPHMn3-6" value="" style="endArrow=none;html=1;rounded=0;entryX=0;entryY=0.5;entryDx=0;entryDy=0;startArrow=diamond;startFill=1;" parent="1" edge="1">
          <mxGeometry width="50" height="50" relative="1" as="geometry">
            <mxPoint x="100" y="550" as="sourcePoint" />
            <mxPoint x="240" y="550" as="targetPoint" />
          </mxGeometry>
        </mxCell>
        <mxCell id="OLNctRt6fVr137dPHMn3-7" value="To the internet" style="text;html=1;resizable=0;autosize=1;align=center;verticalAlign=middle;points=[];fillColor=none;strokeColor=none;rounded=0;" parent="1" vertex="1">
          <mxGeometry x="60" y="415" width="90" height="20" as="geometry" />
        </mxCell>
        <mxCell id="m3tC9TscizKlyn0Dpunv-1" value="" style="group" vertex="1" connectable="0" parent="1">
          <mxGeometry x="240" y="140" width="160" height="150" as="geometry" />
        </mxCell>
        <mxCell id="m3tC9TscizKlyn0Dpunv-2" value="Gateway Subnet" style="rounded=1;arcSize=10;dashed=0;fillColor=none;gradientColor=none;strokeWidth=2;" vertex="1" parent="m3tC9TscizKlyn0Dpunv-1">
          <mxGeometry y="20" width="160" height="130" as="geometry" />
        </mxCell>
        <mxCell id="m3tC9TscizKlyn0Dpunv-3" value="" style="aspect=fixed;html=1;points=[];align=center;image;fontSize=12;image=img/lib/azure2/networking/Network_Security_Groups.svg;" vertex="1" parent="m3tC9TscizKlyn0Dpunv-1">
          <mxGeometry x="10" y="6" width="24.71" height="30" as="geometry" />
        </mxCell>
        <mxCell id="m3tC9TscizKlyn0Dpunv-4" value="Azure Portal" style="text;html=1;resizable=0;autosize=1;align=center;verticalAlign=middle;points=[];fillColor=none;strokeColor=none;rounded=0;" vertex="1" parent="1">
          <mxGeometry x="65" y="573.75" width="80" height="20" as="geometry" />
        </mxCell>
        <mxCell id="m3tC9TscizKlyn0Dpunv-5" style="edgeStyle=orthogonalEdgeStyle;rounded=0;orthogonalLoop=1;jettySize=auto;html=1;exitX=0;exitY=0.5;exitDx=0;exitDy=0;entryX=1;entryY=0.5;entryDx=0;entryDy=0;" edge="1" parent="1" source="Qy1YSooEbF1-Xl57sns_-21" target="Qy1YSooEbF1-Xl57sns_-12">
          <mxGeometry relative="1" as="geometry" />
        </mxCell>
        <mxCell id="m3tC9TscizKlyn0Dpunv-6" style="edgeStyle=orthogonalEdgeStyle;rounded=0;orthogonalLoop=1;jettySize=auto;html=1;exitX=0;exitY=0.5;exitDx=0;exitDy=0;entryX=1;entryY=0.5;entryDx=0;entryDy=0;" edge="1" parent="1" source="Qy1YSooEbF1-Xl57sns_-33" target="Qy1YSooEbF1-Xl57sns_-12">
          <mxGeometry relative="1" as="geometry" />
        </mxCell>
        <mxCell id="m3tC9TscizKlyn0Dpunv-7" value="vnet peering" style="text;html=1;resizable=0;autosize=1;align=center;verticalAlign=middle;points=[];fillColor=none;strokeColor=none;rounded=0;" vertex="1" parent="1">
          <mxGeometry x="460" y="570" width="80" height="20" as="geometry" />
        </mxCell>
        <mxCell id="m3tC9TscizKlyn0Dpunv-8" value="vnet peering" style="text;html=1;resizable=0;autosize=1;align=center;verticalAlign=middle;points=[];fillColor=none;strokeColor=none;rounded=0;" vertex="1" parent="1">
          <mxGeometry x="470" y="200" width="80" height="20" as="geometry" />
        </mxCell>
      </root>
    </mxGraphModel>
  </diagram>
</mxfile>
